<svg xmlns="http://www.w3.org/2000/svg" xmlns:xlink="http://www.w3.org/1999/xlink" width="463.033" height="186.134" viewBox="0 0 463.033 186.134"><defs><style>.a{fill:#fff;}.b{clip-path:url(#a);}</style><clipPath id="a"><path class="a" d="M0-770.426H463.033v186.134H0Z" transform="translate(0 770.426)"/></clipPath></defs><g transform="translate(0 770.426)"><g class="b" transform="translate(0 -770.426)"><g transform="translate(165.804 85.933)"><path class="a" d="M0-63.072C0-74.783,8.992-83.164,21.092-83.164c6.716,0,12.322,2.442,15.985,6.882L31.3-70.953A12.5,12.5,0,0,0,21.536-75.5C14.265-75.5,9.1-70.4,9.1-63.072s5.162,12.433,12.433,12.433A12.383,12.383,0,0,0,31.3-55.246l5.772,5.328c-3.663,4.5-9.269,6.938-16.041,6.938C8.992-42.979,0-51.36,0-63.072" transform="translate(0 83.164)"/></g><g transform="translate(203.048 86.599)"><path class="a" d="M-87.466-74.4l-6.161-14.875L-99.788-74.4Zm2.831,6.827h-18.039l-3.441,8.326h-9.214L-98.011-98.1h8.88l17.373,38.853h-9.436Z" transform="translate(115.329 98.097)"/></g><g transform="translate(250.671 86.599)"><path class="a" d="M-110.987-121.962l-.056-23.312-11.434,19.2h-4.052l-11.378-18.705v22.812h-8.437v-38.853h7.438l14.542,24.144,14.32-24.144h7.382l.111,38.853Z" transform="translate(146.344 160.815)"/></g><g transform="translate(303.678 86.599)"><path class="a" d="M-77.186-44.255c0-4.274-2.775-6.771-8.27-6.771h-7.326v13.488h7.326c5.495,0,8.27-2.5,8.27-6.716m9.1,0c0,8.659-6.494,14.043-16.873,14.043h-7.826V-19.5h-8.992V-58.353h16.818c10.379,0,16.873,5.384,16.873,14.1" transform="translate(101.775 58.353)"/></g><g transform="translate(343.753 86.599)"><path class="a" d="M-94.435-99.313V-92.1h-30.083V-130.95h29.363v7.216h-20.426v8.437h18.039v6.993h-18.039v8.992Z" transform="translate(124.518 130.95)"/></g><g transform="translate(375.89 75.11)"><path class="a" d="M-87.465-110.463l-6.161-14.875-6.16,14.875Zm-12.377-27.086h-4.385c.111-4.94,2.609-8.1,6.494-8.1,3.83,0,5.773,3.552,7.771,3.552,1.5,0,2.553-1.165,2.664-3h4.385c-.111,4.773-2.609,7.937-6.494,7.937-3.83,0-5.773-3.5-7.77-3.5-1.5,0-2.554,1.11-2.664,3.108m15.208,33.913h-18.039l-3.441,8.326h-9.214l17.317-38.853h8.88L-71.757-95.31h-9.436Z" transform="translate(115.328 145.652)"/></g><g transform="translate(420.517 85.933)"><path class="a" d="M-104.886-63.072c0-7.382-5.217-12.433-12.155-12.433S-129.2-70.454-129.2-63.072s5.217,12.433,12.155,12.433,12.155-5.051,12.155-12.433m-33.413,0c0-11.545,8.992-20.092,21.258-20.092,12.211,0,21.258,8.492,21.258,20.092s-9.047,20.093-21.258,20.093c-12.266,0-21.258-8.548-21.258-20.093" transform="translate(138.299 83.164)"/></g><g transform="translate(0 86.599)"><path class="a" d="M0-68.3V-90.056H8.992v21.425c0,7.382,3.219,10.435,8.659,10.435,5.495,0,8.659-3.053,8.659-10.435V-90.056H35.19V-68.3c0,11.434-6.55,17.762-17.595,17.762S0-56.864,0-68.3" transform="translate(0 90.056)"/></g><g transform="translate(41.018 85.933)"><path class="a" d="M0-112.031,3.053-118.8a22.855,22.855,0,0,0,12.822,4.052c5.328,0,7.493-1.776,7.493-4.162,0-7.271-22.59-2.276-22.59-16.707,0-6.6,5.328-12.1,16.374-12.1a26.063,26.063,0,0,1,13.488,3.441l-2.775,6.827A21.942,21.942,0,0,0,17.1-140.5c-5.328,0-7.382,2-7.382,4.44,0,7.16,22.59,2.22,22.59,16.485,0,6.494-5.384,12.044-16.485,12.044-6.161,0-12.378-1.832-15.819-4.5" transform="translate(0 147.72)"/></g><g transform="translate(79.15 86.599)"><path class="a" d="M0-68.3V-90.056H8.992v21.425c0,7.382,3.219,10.435,8.659,10.435,5.495,0,8.659-3.053,8.659-10.435V-90.056h8.88V-68.3c0,11.434-6.55,17.762-17.595,17.762S0-56.864,0-68.3" transform="translate(0 90.056)"/></g><g transform="translate(203.528 136.187)"><path class="a" d="M-22.484-11.8c0-1.54-1.032-2.418-3-2.418h-2.618v4.852h2.618c1.972,0,3-.894,3-2.434m.046,7.024-2.326-3.312c-.216.015-.447.031-.678.031h-2.665v3.281h-1.54V-15.555h4.205c2.8,0,4.5,1.417,4.5,3.758a3.4,3.4,0,0,1-2.372,3.4l2.557,3.62Z" transform="translate(29.646 15.555)"/></g><g transform="translate(217.499 136.188)"><path class="a" d="M-24.563-29.64v1.34h-7.825V-39.082h7.609v1.34h-6.069v3.312h5.407v1.309h-5.407v3.481Z" transform="translate(32.388 39.082)"/></g><g transform="translate(229.668 136.064)"><path class="a" d="M-26.207-17.116h1.479v4.205a6.373,6.373,0,0,1-4.082,1.371,5.463,5.463,0,0,1-5.746-5.515,5.471,5.471,0,0,1,5.776-5.514A5.4,5.4,0,0,1-24.635-20.9l-.955.955A4.272,4.272,0,0,0-28.717-21.2a4.08,4.08,0,0,0-4.3,4.144,4.093,4.093,0,0,0,4.282,4.143,4.56,4.56,0,0,0,2.526-.693Z" transform="translate(34.555 22.568)"/></g><g transform="translate(245.118 136.188)"><path class="a" d="M0-19.244v-6.131H1.54v6.069c0,2.388,1.094,3.466,3.035,3.466s3.05-1.078,3.05-3.466v-6.069H9.119v6.131c0,3.127-1.71,4.775-4.56,4.775C1.725-14.469,0-16.118,0-19.244" transform="translate(0 25.375)"/></g><g transform="translate(260.168 136.188)"><path class="a" d="M0,0H1.54V9.442H7.378v1.34H0Z"/></g><g transform="translate(270.504 136.188)"><path class="a" d="M-25-21.517-27.324-26.8l-2.326,5.283Zm.539,1.232h-5.73l-1.186,2.7h-1.586l4.882-10.782h1.525l4.9,10.782h-1.618Z" transform="translate(32.961 28.371)"/></g><g transform="translate(286.186 136.187)"><path class="a" d="M-22.483-11.8c0-1.54-1.032-2.418-3-2.418H-28.1v4.852h2.618c1.972,0,3-.894,3-2.434m.047,7.024-2.326-3.312c-.216.015-.447.031-.678.031H-28.1v3.281h-1.54V-15.555h4.205c2.8,0,4.5,1.417,4.5,3.758a3.4,3.4,0,0,1-2.372,3.4l2.557,3.62Z" transform="translate(29.645 15.555)"/></g><path class="a" d="M1242.375-206.734h1.541v10.782h-1.541Z" transform="translate(-942.218 342.922)"/><g transform="translate(306.75 136.188)"><path class="a" d="M-28.286-29.64v1.34H-37.3v-1.047l6.778-8.4h-6.67v-1.34h8.7v1.048l-6.747,8.395Z" transform="translate(37.297 39.082)"/></g><g transform="translate(320.598 136.188)"><path class="a" d="M-24.564-29.64v1.34h-7.825V-39.082h7.609v1.34h-6.069v3.312h5.406v1.309h-5.406v3.481Z" transform="translate(32.389 39.082)"/></g><g transform="translate(339.622 136.064)"><path class="a" d="M0-30.366l.57-1.2a5.555,5.555,0,0,0,3.559,1.248c1.864,0,2.665-.724,2.665-1.664,0-2.634-6.531-.97-6.531-4.975,0-1.663,1.294-3.08,4.128-3.08a6.35,6.35,0,0,1,3.466.955l-.508,1.233A5.571,5.571,0,0,0,4.39-38.73c-1.833,0-2.619.77-2.619,1.71,0,2.634,6.531.986,6.531,4.944,0,1.648-1.324,3.066-4.174,3.066A6.4,6.4,0,0,1,0-30.366" transform="translate(0 40.039)"/></g><g transform="translate(352.947 136.188)"><path class="a" d="M-24.564-29.64v1.34h-7.825V-39.082h7.609v1.34h-6.069v3.312h5.406v1.309h-5.406v3.481Z" transform="translate(32.389 39.082)"/></g><g transform="translate(365.947 136.188)"><path class="a" d="M0-19.244v-6.131H1.541v6.069c0,2.388,1.093,3.466,3.034,3.466s3.05-1.078,3.05-3.466v-6.069H9.119v6.131c0,3.127-1.71,4.775-4.56,4.775C1.726-14.469,0-16.118,0-19.244" transform="translate(0 25.375)"/></g><path class="a" d="M1605.607-206.734h1.54v10.782h-1.54Z" transform="translate(-1217.693 342.922)"/><g transform="translate(395.462 136.188)"><path class="a" d="M-31.38-33.847-31.4-41.7l-3.9,6.546H-36l-3.9-6.5v7.809h-1.479V-44.629h1.263l4.5,7.578,4.436-7.578h1.263l.015,10.782Z" transform="translate(41.377 44.629)"/></g><g transform="translate(412.067 133.307)"><path class="a" d="M-20.986,0h1.879L-21.7,2h-1.386Zm3.234,8.271a4.048,4.048,0,0,0-4.174-4.143,4.056,4.056,0,0,0-4.205,4.143,4.056,4.056,0,0,0,4.205,4.144,4.048,4.048,0,0,0,4.174-4.144m-9.92,0a5.481,5.481,0,0,1,5.745-5.514,5.464,5.464,0,0,1,5.715,5.514,5.464,5.464,0,0,1-5.715,5.515,5.481,5.481,0,0,1-5.745-5.515" transform="translate(27.672)"/></g><g transform="translate(426.686 136.188)"><path class="a" d="M-34.523,0l-4.729,10.782h-1.525L-45.521,0h1.663l3.882,8.857L-36.063,0Z" transform="translate(45.521)"/></g><g transform="translate(441.828 136.188)"><path class="a" d="M-24.564-29.64v1.34h-7.825V-39.082h7.609v1.34h-6.069v3.312h5.407v1.309h-5.407v3.481Z" transform="translate(32.389 39.082)"/></g><g transform="translate(454.922 136.188)"><path class="a" d="M0,0H1.54V9.442H7.378v1.34H0Z"/></g><g transform="translate(87.446 0)"><path class="a" d="M-187.894-458.074v-83.352h-29.428l71.778-50.938,72.475,51.421h16.795l-34.255-24.216V-595.3H-110.1v16.331L-145.5-604h-.084l-90.75,64.311.034.046-11.449,8.123H-197.8v73.93" transform="translate(247.75 604)"/></g><g transform="translate(38.572 140.7)"><path class="a" d="M-721.431-95.194c-40.7-15.213-92.118-25.863-148.419-29.219l.017-.169q-4.894-.287-9.74-.489l-.016.153q-15.747-.692-31-.588-17.181.114-33.575,1.2-2.47.173-4.92.365c-.725.056-1.446.12-2.166.181,1.016.072,2.033.144,3.055.224a584.468,584.468,0,0,1,90,14.34,581.617,581.617,0,0,1,90.024,29.113A213.811,213.811,0,0,1-746.64-88.31c-31.722-12.49-68.211-22.836-107.539-29.832q-6.345-1.129-12.634-2.114c48.172,5.172,92.368,15.567,128.921,29.276q7.928-2.273,16.461-4.214" transform="translate(951.253 125.519)"/></g></g></g></svg>